<svg width="24" height="25" viewBox="0 0 24 25" fill="none" xmlns="http://www.w3.org/2000/svg">
<path d="M16 23V19.13C16.0375 18.6532 15.9731 18.1738 15.811 17.7238C15.6489 17.2738 15.3929 16.8634 15.06 16.52C18.2 16.17 21.5 14.98 21.5 9.52C21.4997 8.12383 20.9627 6.7812 20 5.77C20.4559 4.54851 20.4236 3.19835 19.91 2C19.91 2 18.73 1.65 16 3.48C13.708 2.85882 11.292 2.85882 9 3.48C6.27 1.65 5.09 2 5.09 2C4.57638 3.19835 4.54414 4.54851 5 5.77C4.03013 6.7887 3.49252 8.14346 3.5 9.55C3.5 14.97 6.8 16.16 9.94 16.55C9.611 16.89 9.35726 17.2954 9.19531 17.7399C9.03335 18.1844 8.96681 18.6581 9 19.13V23M9 20C4 21.5 4 17.5 2 17L9 20Z" stroke="#34ABE0" stroke-width="2" stroke-linecap="round" stroke-linejoin="round"/>
</svg>
